<svg id="Capa_4" data-name="Capa 4" xmlns="http://www.w3.org/2000/svg" xmlns:xlink="http://www.w3.org/1999/xlink" viewBox="0 0 478.06 560.82"><defs><style>.cls-1,.cls-5,.cls-7{fill:none;}.cls-1,.cls-4{stroke:#efcd6f;}.cls-1,.cls-11,.cls-13,.cls-15,.cls-17,.cls-4,.cls-5,.cls-7,.cls-8{stroke-miterlimit:10;}.cls-1{stroke-width:1.5px;}.cls-2{clip-path:url(#clip-path);}.cls-3{fill:#efcd6f;}.cls-12,.cls-15,.cls-4{fill:#fff;}.cls-11,.cls-12,.cls-13,.cls-14,.cls-15,.cls-16,.cls-17,.cls-5,.cls-7,.cls-8{stroke:#211915;}.cls-6{fill:#ebe281;}.cls-7,.cls-8{stroke-width:1.83px;}.cls-8,.cls-9{fill:#efd5bf;}.cls-10,.cls-17{fill:#211915;}.cls-11{fill:#565655;}.cls-11,.cls-12{stroke-width:1.22px;}.cls-12,.cls-14,.cls-16{stroke-linecap:round;stroke-linejoin:round;}.cls-13{fill:#cfd0d5;}.cls-13,.cls-17{stroke-width:0.61px;}.cls-14{fill:#5a3817;}.cls-14,.cls-16{stroke-width:0.91px;}.cls-15{stroke-width:1.52px;}.cls-16{fill:#edd2ba;}.cls-18{fill:#944d1d;}</style><clipPath id="clip-path" transform="translate(-277.73 -140.81)"><circle class="cls-1" cx="468.01" cy="410.56" r="43.04"/></clipPath></defs><title>chef1</title><g class="cls-2"><rect class="cls-3" x="439.64" y="403.81" width="1.5" height="22.19" rx="0.68" transform="translate(-440.39 224.93) rotate(-38.63)"/><rect class="cls-3" x="444.72" y="399.76" width="1.5" height="22.19" rx="0.68" transform="translate(-436.75 227.21) rotate(-38.63)"/><rect class="cls-3" x="450.57" y="395.07" width="1.5" height="22.19" rx="0.68" transform="translate(-432.54 229.84) rotate(-38.63)"/><rect class="cls-3" x="456.04" y="390.7" width="1.5" height="22.19" rx="0.68" transform="translate(-428.62 232.3) rotate(-38.63)"/><path class="cls-4" d="M444.08,421.44l18.26-14.6s11.12,10.78.81,19C452,434.79,444.08,421.44,444.08,421.44Z" transform="translate(-277.73 -140.81)"/><rect class="cls-4" x="462.21" y="425.23" width="5.33" height="8.86" transform="translate(-444.25 243.44) rotate(-38.63)"/><path class="cls-5" d="M477.49,452.13" transform="translate(-277.73 -140.81)"/><rect class="cls-4" x="471.62" y="429.48" width="9" height="28.5" rx="4.5" transform="translate(-450.57 253.54) rotate(-38.63)"/><rect class="cls-4" x="484.47" y="407.44" width="5.33" height="8.86" transform="translate(-428.27 253.45) rotate(-38.63)"/><rect class="cls-4" x="493.88" y="411.69" width="9" height="28.5" rx="4.5" transform="translate(-434.59 263.55) rotate(-38.63)"/><path class="cls-4" d="M484.35,408.92s-4.1,6.19-14.23,0-12.91-23.42-7.74-26.85c5.88-3.92,16.57-1.7,24.54,12C486.92,394.08,493.06,402.93,484.35,408.92Z" transform="translate(-277.73 -140.81)"/></g><circle class="cls-1" cx="190.28" cy="269.75" r="43.04"/><path class="cls-6" d="M433.37,656.88S267.65,513.34,290.23,321.2s253.18-180,253.18-180,326.24-23.14,170,289.87C584.14,690.18,592.09,662.84,592.09,662.84Z" transform="translate(-277.73 -140.81)"/><ellipse class="cls-3" cx="491.55" cy="668.08" rx="150.23" ry="33.55" transform="translate(-280.86 -138.5) rotate(-0.27)"/><path class="cls-7" d="M399.82,528.34s-10.81,0-17.81,16.12-8.85,22.22.1,21.24c0,0,.14,6.15,5.95,4.45,0,0,5.82,8.19,9.06.25,0,0,.95-19.31,9.86-25.32,0,0,3.38,4.09,1.74,12.11,0,0,3.37,4.46,6.89-.59s3.47-15.86-3.65-22.91a48.59,48.59,0,0,0,1.81-13.05L401,508.39S397.89,513.25,399.82,528.34Z" transform="translate(-277.73 -140.81)"/><path class="cls-8" d="M610.62,382.72l13.79-.07-.08-17.33s36.48-11.17,23.9-30.68c0,0,4.95-17.55-4-18.44s-6.67,9.54-6.67,9.54-2.69-17.69-11.62-15.23-3.5,10.64-3.5,10.64,3.21,6.88,3.6,12.1a15.91,15.91,0,0,0-13.64-8.32c-10.07-.51-14.31,8.82-10.38,12.35,0,0-11.54,3.22-10.37,15.7s8.45,13.38,18,13.34Z" transform="translate(-277.73 -140.81)"/><path class="cls-9" d="M399.82,528.34s-10.81,0-17.81,16.12-8.85,22.22.1,21.24c0,0,.14,6.15,5.95,4.45,0,0,5.82,8.19,9.06.25,0,0,.95-19.31,9.86-25.32,0,0,3.38,4.09,1.74,12.11,0,0,3.37,4.46,6.89-.59s3.47-15.86-3.65-22.91a48.59,48.59,0,0,0,1.81-13.05L401,508.39S397.89,513.25,399.82,528.34Z" transform="translate(-277.73 -140.81)"/><path class="cls-10" d="M382.15,566.23s-.72-12.71,8.54-22.47c0,0-9.9,6.13-9.68,22" transform="translate(-277.73 -140.81)"/><path class="cls-10" d="M388.83,571.42s-1.92-15.41,8.75-27.19c0,0-12.11,8.25-9.8,26" transform="translate(-277.73 -140.81)"/><path class="cls-10" d="M407.06,531.1s5.1,1.79,7.22,5.35l-.53-2.44S410.48,530.39,407.06,531.1Z" transform="translate(-277.73 -140.81)"/><path class="cls-9" d="M610.62,382.72l13.79-.07-.08-17.33s36.48-11.17,23.9-30.68c0,0,4.95-17.55-4-18.44s-6.67,9.54-6.67,9.54-2.69-17.69-11.62-15.23-3.5,10.64-3.5,10.64,3.21,6.88,3.6,12.1a15.91,15.91,0,0,0-13.64-8.32c-10.07-.51-14.31,8.82-10.38,12.35,0,0-11.54,3.22-10.37,15.7s8.45,13.38,18,13.34Z" transform="translate(-277.73 -140.81)"/><path class="cls-10" d="M628.36,349.83s10.43-7.9,8.46-27.54l1-2.72S641.19,343.24,628.36,349.83Z" transform="translate(-277.73 -140.81)"/><path class="cls-10" d="M627.08,356.36s15.07-7.53,21.15-21.72l.45.73S643.94,349.2,627.08,356.36Z" transform="translate(-277.73 -140.81)"/><path class="cls-10" d="M613.71,325s14,1.07,11.25,15.16c0,0,1.57-2.52.86-8.71C625.82,331.49,621.84,324.7,613.71,325Z" transform="translate(-277.73 -140.81)"/><path class="cls-10" d="M596.31,340.52s8.29-6.4,13.3,1c.14.21.61-.18.46-.56,0,0-1.82-5.27-8.71-4.4C601.36,336.53,596.83,339.19,596.31,340.52Z" transform="translate(-277.73 -140.81)"/><path class="cls-10" d="M609.56,341s.73,5.51-1.85,7.55.25,8,4.92,6.13,7.38-6,6.18-9.11S615.64,339.87,609.56,341Z" transform="translate(-277.73 -140.81)"/><path class="cls-6" d="M611,342.6s.59,4.07-1.79,6.18c-2.78,2.47,1.16,6.9,4.64,4.2,3.25-2.52,4.7-4,3.73-6.83C616.87,344.1,616.25,341.57,611,342.6Z" transform="translate(-277.73 -140.81)"/><path class="cls-11" d="M464.62,594.46l14.93,66c-5.43-.36-15-.27-14.48,5.1.79,7.45,22.38,2.5,22.38,2.5l-.33-70.45Z" transform="translate(-277.73 -140.81)"/><path class="cls-11" d="M526.39,663.62c-1.59-3.48-6.89-3.6-10.45-3.25l10.12-66.2s-4.83,2.94-20.3,2.82l2.2,71.75h3.91l4.38,0S528.84,669,526.39,663.62Z" transform="translate(-277.73 -140.81)"/><path class="cls-12" d="M435.8,585.58S493.71,612.89,564,585c0,0-2.87-134.56-24.65-168.75,0,0,34.78,22.95,53.4,19.13s43.53-17,42.62-52.76l-9.32,0-23.48.11s4.37,58.51-82.36,6.73l-46.95,2.83s-69.78,63.7-75.48,120c0,0,18.72,17.44,29.13,11.42,0,0,16.91-50,19.88-53C446.82,470.71,432.26,545.71,435.8,585.58Z" transform="translate(-277.73 -140.81)"/><ellipse class="cls-13" cx="499.5" cy="434.87" rx="3.08" ry="2.8" transform="translate(-279.77 -138.46) rotate(-0.27)"/><ellipse class="cls-13" cx="518.6" cy="434.78" rx="3.08" ry="2.8" transform="translate(-279.77 -138.37) rotate(-0.27)"/><ellipse class="cls-13" cx="499.58" cy="453.32" rx="3.08" ry="2.8" transform="translate(-279.85 -138.46) rotate(-0.27)"/><ellipse class="cls-13" cx="519.71" cy="451.55" rx="3.08" ry="2.8" transform="translate(-279.84 -138.37) rotate(-0.27)"/><ellipse class="cls-13" cx="501.08" cy="474.19" rx="3.08" ry="2.8" transform="translate(-279.95 -138.45) rotate(-0.27)"/><ellipse class="cls-13" cx="521.2" cy="472.42" rx="3.08" ry="2.8" transform="translate(-279.94 -138.36) rotate(-0.27)"/><ellipse class="cls-13" cx="504.26" cy="496.54" rx="3.08" ry="2.8" transform="translate(-280.06 -138.44) rotate(-0.27)"/><ellipse class="cls-13" cx="524.38" cy="494.77" rx="3.08" ry="2.8" transform="translate(-280.05 -138.34) rotate(-0.27)"/><ellipse class="cls-13" cx="505.2" cy="517.04" rx="3.08" ry="2.8" transform="translate(-280.15 -138.43) rotate(-0.27)"/><ellipse class="cls-13" cx="525.32" cy="515.27" rx="3.08" ry="2.8" transform="translate(-280.14 -138.34) rotate(-0.27)"/><ellipse class="cls-13" cx="504.48" cy="543.69" rx="3.08" ry="2.8" transform="translate(-280.28 -138.44) rotate(-0.27)"/><ellipse class="cls-13" cx="524.6" cy="541.92" rx="3.08" ry="2.8" transform="translate(-280.27 -138.34) rotate(-0.27)"/><path class="cls-10" d="M392.79,530.82s5.45-2.82,10.69-1.66c0,0-1.27-2.1-6-1S392.79,530.82,392.79,530.82Z" transform="translate(-277.73 -140.81)"/><path class="cls-10" d="M474,392.27,471.63,395s-35.27,50.4-38.6,189.36c0,1.84,2,2,2,2S436.87,454.73,474,392.27Z" transform="translate(-277.73 -140.81)"/><path class="cls-10" d="M468.5,402.58s23,14.52,59.26-2.05l.63,1.14s-32,16.9-60.26,1.75Z" transform="translate(-277.73 -140.81)"/><path class="cls-10" d="M537.7,592l-.5-105.31s.75-79.9-44.25-77l1-1s40.92-9.35,45.41,73.85L540.74,592Z" transform="translate(-277.73 -140.81)"/><path class="cls-10" d="M519.42,390.23s-1.6-5.21,20.49,25.16l-.93,2.42S521.11,390.82,519.42,390.23Z" transform="translate(-277.73 -140.81)"/><path class="cls-14" d="M454.59,339.21s-4.28,10,6.21,12l3.3-12.06Z" transform="translate(-277.73 -140.81)"/><path class="cls-15" d="M518,196c-1.8-13.87-19.14-28.06-35-26.49-36.05,3.55-34.28,31.87-33.53,34.08-3-1-6.71-1.13-10.07-1.11-15.13.07-27.34,11.44-27.28,25.4s12.39,25.22,27.52,25.15a28.83,28.83,0,0,0,15.68-4.65,27.35,27.35,0,0,0,7.91,1.13h.53L467.28,301s17.29-8.25,22.74-9.2c6.56-1.14,25.3.86,25.3.86l0-4.75-19.67-47a27,27,0,0,0,7.08-1,29.65,29.65,0,0,0,13.78,3.27c15.13-.07,27.35-11.13,27.28-24.7C543.71,205.53,532.21,196.9,518,196Z" transform="translate(-277.73 -140.81)"/><path class="cls-16" d="M462.23,339.89s-12.46,4-12.5-5.25,13.9-.07,13.9-.07-.73-34.1,5.77-39.72c0,0,35.68-13.87,43.38-5s17.74,32.35,13.53,41.87c0,0,9.89-9.27,12.79,3.3S530,340.4,530,340.4s19.79,45.49-16.46,59.36c0,0-5.05,12.61-12.42,12.08s-13.67-10.28-13.67-10.28S449.47,400.9,462.23,339.89Z" transform="translate(-277.73 -140.81)"/><path class="cls-10" d="M453.93,338.54s-.35-3.64,4.42-4.72C458.35,333.82,451.48,331.6,453.93,338.54Z" transform="translate(-277.73 -140.81)"/><path class="cls-10" d="M454.57,334.9s4.21,1.81,5.05,3.61C459.62,338.51,459.33,335.15,454.57,334.9Z" transform="translate(-277.73 -140.81)"/><path class="cls-10" d="M529.63,333.14a13.27,13.27,0,0,1,3,1.69,7.68,7.68,0,0,1-2.4.83c2.8.68,3.27,0,3.27,0a2.92,2.92,0,0,1,.8,1.82C534.28,340,537,331.41,529.63,333.14Z" transform="translate(-277.73 -140.81)"/><ellipse class="cls-10" cx="485.79" cy="329.72" rx="2.59" ry="2.38" transform="translate(-279.27 -138.53) rotate(-0.27)"/><ellipse class="cls-10" cx="509.56" cy="329.6" rx="2.59" ry="2.38" transform="translate(-279.27 -138.42) rotate(-0.27)"/><path class="cls-17" d="M491.38,346.93c-4.48-1.6-5.59,1-5.28,2.53,1.27,6.21,8.18,1.32,8.18,1.32a18.23,18.23,0,0,0,8.37,6.12s12-.55,10-10.61C510.55,335.67,501,341,501,341l-.15-2.09h-1.3l-.07-13.79h.88l0-4H500l0,3.64h-.9l.07,14.55,1.38-.08.19,2.26s9.06-5.35,11.43,4.35c2.56,10.5-9.56,10.74-9.56,10.74s-5.71-2-8.24-6.19c0,0-6.48,5.19-8-.91-.34-1.3.89-3.93,4.88-2.29Z" transform="translate(-277.73 -140.81)"/><path class="cls-14" d="M443.91,357.17s6.9,9.2,15.84,7.76,12.83-5.52,16.3-11.82c0,0,16.54-10.22,24.31,2.43,0,0,13.67-10.86,22.37-3.77s17.42,17.53,31.75,4c0,0-8.18,34.32-55.24,9.07C499.24,364.88,463,392.17,443.91,357.17Z" transform="translate(-277.73 -140.81)"/><path class="cls-14" d="M530.61,316.92s17.87-14.9-3.52-20.67c0,0,4.79-11.48-16.28-9.43l-39,3.82-4,4.07s-11.26-.92-10.93,8.16c0,0-18.48,7.36-3.63,16.65,0,0-10.53,5.09-1.56,11.38,0,0,.86-.75,2.84-.28,2.8.67,7,2.28,9.53,5.35,0,0,.66-1.18.43-5.45.51-.06,2-1,1.95-9.29,0,0,8,.57,4.74-18.42,0,0,20.09,13.75,17.76,1.73,0,0,26.27,14.13,25.35-.12,0,0,9.42,3,11,27.63C525.27,332.05,541,323.13,530.61,316.92Z" transform="translate(-277.73 -140.81)"/><path class="cls-18" d="M331.36,451.87l16.77-2.5-12.95,61.94s-1.64,7.84,6.37,6.5c0,0-1.26,10.25-11.32,9.74s-10.85-8.15-11.62-12.25S331.36,451.87,331.36,451.87Z" transform="translate(-277.73 -140.81)"/><path class="cls-18" d="M321.39,512.13l0-6.72c-6.67,7.86-9.46,9.74-9.46,9.74-22.48,15-18.87-10.54-18.87-10.54,19.37-1.95,24-15.21,24-15.21s8.11-18.67-13.51-18.76-25.75,34.05-25.75,34.05-.95,17.33,11.85,21.93C304.09,531.84,322.3,513.67,321.39,512.13ZM306.5,476.41s11.19.13,3.42,13.21-15.43,9.77-15.43,9.77C299.88,474.71,306.5,476.41,306.5,476.41Z" transform="translate(-277.73 -140.81)"/><path class="cls-18" d="M513.74,511.23l0-6.72c-6.67,7.86-9.46,9.74-9.46,9.74-22.48,15-18.87-10.54-18.87-10.54,19.37-1.95,24-15.21,24-15.21s8.11-18.68-13.52-18.76-25.74,34-25.74,34-1,17.33,11.85,21.94C496.43,530.94,514.65,512.77,513.74,511.23ZM498.85,475.5s11.18.14,3.42,13.22-15.43,9.76-15.43,9.76C492.22,473.81,498.85,475.5,498.85,475.5Z" transform="translate(-277.73 -140.81)"/><path class="cls-18" d="M388.79,496.15s-6,24.63,10.92,21.94,19.64-22.83,19.64-22.83l.06,11.47s-5.51,17.14-28.8,20.38S373.9,499.4,373.9,499.4s2.89-26.71,27.63-28.29c15.84-1,12.17,10.38,12.17,10.38l-6.53-.9s1.09-6-4.31-5.57-10.77,10.12-10.77,10.12S389.23,493.92,388.79,496.15Z" transform="translate(-277.73 -140.81)"/><polygon class="cls-18" points="148.13 310.06 163.03 308.87 158.01 335.63 148.49 386.36 132.08 386.39 148.13 310.06"/><path class="cls-18" d="M439.86,475.17s15-11.67,23.09,5.07c0,0,1.59,7.88-.82,14.35-2.13,5.72-6,23.84,1.18,22.55s8.87-4.37,8.87-4.37l0,4.39s-7.51,9.62-17.85,9.88-11.94-12.74-11.94-12.74,3.28-15.81,4.77-24.62.51-11.75-7.31-9.89-6.84,3-6.84,3l1.51-5.73S436.38,478.41,439.86,475.17Z" transform="translate(-277.73 -140.81)"/><path class="cls-18" d="M630.58,515.87c-2.72-1.71-1.84-5.94-1.84-5.94L641.68,448l-16.76,2.5s-12.75,59.27-12.75,63.44c0,4.68,1.43,10.39,9.18,11.93v0h.09a18.62,18.62,0,0,0,10.87-1.22,64.37,64.37,0,0,0,14.27-13.06l-1.25-3.79C639.38,515.7,634.16,516.67,630.58,515.87Z" transform="translate(-277.73 -140.81)"/><path class="cls-18" d="M662.45,515.72c-2.72-1.71-1.84-5.94-1.84-5.94l12.94-61.94-16.76,2.5S644.05,509.61,644,513.78c0,4.68,1.43,10.39,9.18,11.93v0h.09a16.08,16.08,0,0,0,2.34.29,16.36,16.36,0,0,0,8.52-1.51,64.37,64.37,0,0,0,14.27-13.06l-1.25-3.79C671.25,515.55,666,516.52,662.45,515.72Z" transform="translate(-277.73 -140.81)"/><ellipse class="cls-18" cx="600.38" cy="455.5" rx="9.37" ry="8.99" transform="translate(-279.86 -137.99) rotate(-0.27)"/><path class="cls-18" d="M616.83,505.38S605.2,519.74,599,515.57c-4.94-3.34,6.32-45.08,6.32-45.08l-15.85.07-7.45,42.76s-.9,14,13.21,12.83S621,503.68,621,503.68Z" transform="translate(-277.73 -140.81)"/><path class="cls-18" d="M585.12,508.74s-6.93,14.16-26.48,17.81-16.88-23.2-16.88-23.2,3.63-29.92,21.44-32.66S583,476,581.88,480.8l-7,.31s2.49-5.88-3.94-6.69-13.07,15.16-13.07,15.16-9.35,30.42,7.39,27.08,19.78-15.19,19.78-15.19Z" transform="translate(-277.73 -140.81)"/><path class="cls-18" d="M724.48,478.17c-.63,3.26-6.21,6.09-6.21,6.09l-.43.41c.15-3.91-1-7.22-6.9-2.66-7.41,5.74-3.81,8.81-.89,10.17l0,0c.57,2.79-1.89,12.87-1.89,12.87s-3.59,9.8-9.18,10.66-7-4.44-7-4.44-4-18.71,4.89-30.21,13.12-3.42,13.12-3.42,2,4.18,4.89-1.42-4.65-6.83-4.65-6.83c-25-4.22-31.84,20.51-31.84,20.51-10,39.75,13.94,36.75,13.94,36.75,26.27-1.62,26.3-36,26.3-36C727.41,484.43,725.12,474.91,724.48,478.17Z" transform="translate(-277.73 -140.81)"/><path class="cls-18" d="M541.84,442.78c-14.35-.22-18.11,13.08-18.11,13.08L509.48,526c-29.21,4-22.44,30.52-6.34,28.61,16.39-1.94,18.37-16.2,18.37-16.2l13-63.44,9.06,0,0-4.67-8.09,0,2.26-11h0l.49-.18s0-5.59,7-6.28,5.06,6.13,5.06,6.13l5.5.16C556.08,457.9,556.2,443,541.84,442.78ZM499.62,544.26c-11.35-5.12,8.06-14.56,8.06-14.56S504.94,546.66,499.62,544.26Z" transform="translate(-277.73 -140.81)"/><path class="cls-10" d="M446.25,243.93s18.94,14.17,30.59-6.29C476.84,237.64,468.56,260.74,446.25,243.93Z" transform="translate(-277.73 -140.81)"/><path class="cls-10" d="M510.4,227.33s-6.75,20-28.89,9.78C481.51,237.11,505.34,251,510.4,227.33Z" transform="translate(-277.73 -140.81)"/><path class="cls-10" d="M454.25,212.85s-13-18,3.93-31.88c8.47-7,19-10.3,27.78-9.36,3.69.39,33.39,1.89,30.74,33.82,0,0,9.74-32.81-32.46-37C466.36,166.67,435.21,186.66,454.25,212.85Z" transform="translate(-277.73 -140.81)"/></svg>