<svg id="Capa_1" data-name="Capa 1" xmlns="http://www.w3.org/2000/svg" xmlns:xlink="http://www.w3.org/1999/xlink" viewBox="0 0 1279.39 1510.52"><defs><style>.cls-1,.cls-22,.cls-5,.cls-8{fill:none;}.cls-1,.cls-4{stroke:#eecd6f;}.cls-1,.cls-13,.cls-15,.cls-17,.cls-19,.cls-22,.cls-4,.cls-5,.cls-8,.cls-9{stroke-miterlimit:10;}.cls-1{stroke-width:1.5px;}.cls-2{clip-path:url(#clip-path);}.cls-3{fill:#eecd6f;}.cls-14,.cls-17,.cls-4{fill:#fff;}.cls-13,.cls-14,.cls-15,.cls-16,.cls-17,.cls-18,.cls-19,.cls-5,.cls-8,.cls-9{stroke:#211915;}.cls-6{fill:#f4dc64;}.cls-7{fill:#ffc252;}.cls-8,.cls-9{stroke-width:1.83px;}.cls-10,.cls-9{fill:#eed5be;}.cls-11,.cls-19{fill:#211915;}.cls-12{fill:#ebe280;}.cls-13{fill:#565555;}.cls-13,.cls-14{stroke-width:1.22px;}.cls-14,.cls-16,.cls-18{stroke-linecap:round;stroke-linejoin:round;}.cls-15{fill:#cecfd4;}.cls-15,.cls-19{stroke-width:0.61px;}.cls-16{fill:#5a3817;}.cls-16,.cls-18{stroke-width:0.91px;}.cls-17{stroke-width:1.52px;}.cls-18{fill:#ecd2b9;}.cls-20,.cls-21{fill:#98380c;}.cls-21{font-size:46.92px;font-family:MyriadPro-Regular, Myriad Pro;}.cls-22{stroke:#98380c;stroke-width:3px;}</style><clipPath id="clip-path" transform="translate(-307.93 -265.27)"><circle class="cls-1" cx="911.21" cy="771.13" r="212.41"/></clipPath></defs><title>chef1</title><g class="cls-2"><rect class="cls-3" x="792.43" y="640.27" width="7.4" height="109.5" rx="0.68" transform="translate(-260.13 -316.49) rotate(3.8)"/><rect class="cls-3" x="824.44" y="642.4" width="7.4" height="109.5" rx="0.68" transform="translate(-259.92 -318.6) rotate(3.8)"/><rect class="cls-3" x="861.37" y="644.85" width="7.4" height="109.5" rx="0.68" transform="translate(-259.68 -321.04) rotate(3.8)"/><rect class="cls-3" x="895.84" y="647.14" width="7.4" height="109.5" rx="0.68" transform="translate(-259.45 -323.32) rotate(3.8)"/><path class="cls-4" d="M787.87,731.1,903,738.74s4.59,76.26-60.42,72C772.37,806.19,787.87,731.1,787.87,731.1Z" transform="translate(-307.93 -265.27)"/><rect class="cls-4" x="823.04" y="808.42" width="26.32" height="43.71" transform="matrix(1, 0.07, -0.07, 1, -251.09, -318.84)"/><path class="cls-5" d="M807.37,954.12" transform="translate(-307.93 -265.27)"/><rect class="cls-4" x="808.1" y="848.64" width="44.41" height="140.64" rx="4.5" transform="translate(-245.22 -318.26) rotate(3.8)"/><rect class="cls-4" x="963.37" y="817.74" width="26.32" height="43.71" transform="translate(-250.16 -328.12) rotate(3.8)"/><rect class="cls-4" x="948.44" y="857.96" width="44.41" height="140.64" rx="4.5" transform="translate(-244.3 -327.54) rotate(3.8)"/><path class="cls-4" d="M976.21,819.6s-35.55,8.85-51.84-47.42,30.94-128.26,61.21-123.57c34.46,5.35,66,49,49.39,125.48C1035,774.09,1027.87,826.78,976.21,819.6Z" transform="translate(-307.93 -265.27)"/></g><circle class="cls-1" cx="603.28" cy="505.86" r="212.41"/><path class="cls-6" d="M730.92,1656.92S281,1275.69,336.19,758.27,1011.9,266.78,1011.9,266.78s876.78-71.71,465.75,774.67C1137.4,1742.12,1158,1668.35,1158,1668.35Z" transform="translate(-307.93 -265.27)"/><ellipse class="cls-7" cx="887.75" cy="1685.34" rx="404.06" ry="90.24" transform="translate(-333.95 -251.3) rotate(-0.89)"/><path class="cls-8" d="M637,1312.19s-29.07.46-47.45,43.86-23.13,60,.89,57.14c0,0,.57,16.54,16.13,11.79,0,0,15.91,21.87,24.38.4,0,0,2-52,25.8-68.37,0,0,9.19,10.89,5,32.51,0,0,9.21,11.9,18.52-1.79s8.86-42.75-10.48-61.5c0,0,4.3-13.61,4.47-35.17l-34.6-32.55S631.33,1271.67,637,1312.19Z" transform="translate(-307.93 -265.27)"/><path class="cls-9" d="M1199.68,914.4l37.1-.58-.72-46.61s97.78-31.1,63.38-83.21c0,0,12.81-47.33-11.29-49.47s-17.65,25.85-17.65,25.85-7.76-47.51-31.72-40.62-9.08,28.72-9.08,28.72,8.81,18.41,10,32.43c0,0-9.85-20.9-36.94-22s-38.23,24.16-27.56,33.52c0,0-30.94,9-27.42,42.54s23.12,35.74,48.68,35.35Z" transform="translate(-307.93 -265.27)"/><path class="cls-10" d="M637,1312.19s-29.07.46-47.45,43.86-23.13,60,.89,57.14c0,0,.57,16.54,16.13,11.79,0,0,15.91,21.87,24.38.4,0,0,2-52,25.8-68.37,0,0,9.19,10.89,5,32.51,0,0,9.21,11.9,18.52-1.79s8.86-42.75-10.48-61.5c0,0,4.3-13.61,4.47-35.17l-34.6-32.55S631.33,1271.67,637,1312.19Z" transform="translate(-307.93 -265.27)"/><path class="cls-11" d="M590.55,1414.6s-2.31-34.15,22.32-60.67c0,0-26.46,16.77-25.42,59.52" transform="translate(-307.93 -265.27)"/><path class="cls-11" d="M608.66,1428.36S603,1387,631.39,1355c0,0-32.32,22.55-25.59,70.2" transform="translate(-307.93 -265.27)"/><path class="cls-11" d="M656.51,1319.41s13.78,4.66,19.57,14.16l-1.49-6.54S665.7,1317.39,656.51,1319.41Z" transform="translate(-307.93 -265.27)"/><path class="cls-10" d="M1199.68,914.4l37.1-.58-.72-46.61s97.78-31.1,63.38-83.21c0,0,12.81-47.33-11.29-49.47s-17.65,25.85-17.65,25.85-7.76-47.51-31.72-40.62-9.08,28.72-9.08,28.72,8.81,18.41,10,32.43c0,0-9.85-20.9-36.94-22s-38.23,24.16-27.56,33.52c0,0-30.94,9-27.42,42.54s23.12,35.74,48.68,35.35Z" transform="translate(-307.93 -265.27)"/><path class="cls-11" d="M1246.44,825.43s27.84-21.54,22-74.32l2.71-7.34S1280.75,807.35,1246.44,825.43Z" transform="translate(-307.93 -265.27)"/><path class="cls-11" d="M1243.2,843s40.29-20.68,56.24-59l1.23,2S1288.33,823.28,1243.2,843Z" transform="translate(-307.93 -265.27)"/><path class="cls-11" d="M1206.32,759.19s37.75,2.48,30.69,40.44c0,0,4.16-6.83,2.07-23.46C1239.08,776.17,1228.18,758,1206.32,759.19Z" transform="translate(-307.93 -265.27)"/><path class="cls-11" d="M1160,801.32s22.1-17.45,35.78,2.23c.38.55,1.63-.5,1.23-1.53,0,0-5.06-14.11-23.55-11.56C1173.45,790.46,1161.34,797.73,1160,801.32Z" transform="translate(-307.93 -265.27)"/><path class="cls-11" d="M1195.63,802.28s2.11,14.82-4.76,20.38.9,21.6,13.41,16.33,19.68-16.28,16.35-24.69S1211.93,799,1195.63,802.28Z" transform="translate(-307.93 -265.27)"/><path class="cls-12" d="M1199.51,806.5s1.7,10.92-4.63,16.67c-7.41,6.73,3.32,18.51,12.6,11.16,8.67-6.87,12.53-10.88,9.84-18.49C1215.38,810.37,1213.63,803.58,1199.51,806.5Z" transform="translate(-307.93 -265.27)"/><path class="cls-13" d="M813.17,1488.14l42.07,177.16c-14.6-.83-40.45-.29-38.78,14.13,2.32,20,60.26,6.09,60.26,6.09L873.78,1496Z" transform="translate(-307.93 -265.27)"/><path class="cls-13" d="M981.3,1672.36c-4.36-9.33-18.63-9.5-28.18-8.45l25.29-178.34s-12.91,8-54.53,8.19l8,192.91,10.53-.17v0l11.78-.2S988.05,1686.8,981.3,1672.36Z" transform="translate(-307.93 -265.27)"/><path class="cls-14" d="M735.4,1465.09s156.54,71.78,344.87-5.34c0,0-11.63-361.82-71.21-453.15,0,0,94.2,60.71,144.17,49.91s116.6-46.93,113.1-143.15l-25.06.39-63.16,1s13.47,157.23-221.29,20.48l-126.21,9s-185.83,173.35-199.53,325c0,0,50.86,46.34,78.68,29.86,0,0,44-135,51.93-143.19C761.69,1155.84,724.71,1358,735.4,1465.09Z" transform="translate(-307.93 -265.27)"/><ellipse class="cls-15" cx="902.33" cy="1057.89" rx="8.27" ry="7.52" transform="translate(-324.22 -251.15) rotate(-0.89)"/><ellipse class="cls-15" cx="953.7" cy="1057.09" rx="8.27" ry="7.52" transform="translate(-324.2 -250.36) rotate(-0.89)"/><ellipse class="cls-15" cx="903.1" cy="1107.52" rx="8.27" ry="7.52" transform="translate(-324.99 -251.14) rotate(-0.89)"/><ellipse class="cls-15" cx="957.17" cy="1102.17" rx="8.27" ry="7.52" transform="translate(-324.9 -250.3) rotate(-0.89)"/><ellipse class="cls-15" cx="907.73" cy="1163.6" rx="8.27" ry="7.52" transform="translate(-325.86 -251.06) rotate(-0.89)"/><ellipse class="cls-15" cx="961.8" cy="1158.25" rx="8.27" ry="7.52" transform="translate(-325.77 -250.22) rotate(-0.89)"/><ellipse class="cls-15" cx="916.94" cy="1223.62" rx="8.27" ry="7.52" transform="translate(-326.79 -250.91) rotate(-0.89)"/><ellipse class="cls-15" cx="971" cy="1218.27" rx="8.27" ry="7.52" transform="translate(-326.7 -250.07) rotate(-0.89)"/><ellipse class="cls-15" cx="920.05" cy="1278.73" rx="8.27" ry="7.52" transform="translate(-327.64 -250.85) rotate(-0.89)"/><ellipse class="cls-15" cx="974.11" cy="1273.37" rx="8.27" ry="7.52" transform="translate(-327.55 -250.01) rotate(-0.89)"/><ellipse class="cls-15" cx="918.9" cy="1350.44" rx="8.27" ry="7.52" transform="translate(-328.76 -250.86) rotate(-0.89)"/><ellipse class="cls-15" cx="972.97" cy="1345.09" rx="8.27" ry="7.52" transform="translate(-328.67 -250.02) rotate(-0.89)"/><path class="cls-11" d="M618.13,1319.07s14.57-7.75,28.72-4.77c0,0-3.49-5.62-16.13-2.61S618.13,1319.07,618.13,1319.07Z" transform="translate(-307.93 -265.27)"/><path class="cls-11" d="M832.39,944.06l-6.16,7.48S732.84,1088.1,727.9,1462c-.06,4.93,5.55,5.18,5.55,5.18S734.48,1113.14,832.39,944.06Z" transform="translate(-307.93 -265.27)"/><path class="cls-11" d="M818,972s62.27,38.39,159.33-7.24l1.72,3s-85.69,46.39-162,6.46Z" transform="translate(-307.93 -265.27)"/><path class="cls-11" d="M1009.65,1479.39l-4.39-283.21S1004.93,981.26,884,990.36l2.6-2.61s109.77-26.33,124.27,197.31l7,294.21Z" transform="translate(-307.93 -265.27)"/><path class="cls-11" d="M954.61,937.25s-4.45-14,55.85,67.09l-2.44,6.54S959.18,938.81,954.61,937.25Z" transform="translate(-307.93 -265.27)"/><path class="cls-16" d="M778.79,801.91s-11.24,26.93,17,32.14l8.52-32.54Z" transform="translate(-307.93 -265.27)"/><path class="cls-17" d="M945.26,415c-5.23-37.26-52.3-74.9-95-70.23-96.86,10.61-91.29,86.71-89.19,92.64-8-2.62-18.1-2.84-27.12-2.7-40.69.63-73.21,31.57-72.63,69.12s34,67.46,74.74,66.83a77.65,77.65,0,0,0,42-12.94,73.64,73.64,0,0,0,21.29,2.8l1.44-.06L811.78,698.8s46.28-22.69,60.9-25.38c17.63-3.26,68.09,1.57,68.09,1.57l-.2-12.78-54.28-126a73.56,73.56,0,0,0,19-2.8,79.78,79.78,0,0,0,37.16,8.39c40.69-.63,73.22-30.74,72.66-67.24C1014.59,439.79,983.4,416.92,945.26,415Z" transform="translate(-307.93 -265.27)"/><path class="cls-18" d="M799.35,803.53s-33.4,11.05-33.79-13.76,37.39-.58,37.39-.58-3-91.71,14.36-107c0,0,95.57-38.33,116.54-14.59s48.66,86.48,37.61,112.23c0,0,26.32-25.23,34.47,8.49s-24.19,14.62-24.19,14.62,54.55,121.78-42.54,160.14c0,0-13.21,34.05-33.07,32.85s-37.06-27.25-37.06-27.25S766.8,968,799.35,803.53Z" transform="translate(-307.93 -265.27)"/><path class="cls-11" d="M777,800.14s-1.05-9.78,11.75-12.83C788.73,787.31,770.2,781.55,777,800.14Z" transform="translate(-307.93 -265.27)"/><path class="cls-11" d="M778.61,790.32s11.35,4.76,13.68,9.58C792.29,799.9,791.4,790.87,778.61,790.32Z" transform="translate(-307.93 -265.27)"/><path class="cls-11" d="M980.43,783.4a35.89,35.89,0,0,1,8,4.48,20.27,20.27,0,0,1-6.42,2.29c7.55,1.76,8.77-.14,8.77-.14a7.64,7.64,0,0,1,2.21,4.86C993.12,801.66,1000.29,778.56,980.43,783.4Z" transform="translate(-307.93 -265.27)"/><ellipse class="cls-11" cx="862.42" cy="775.48" rx="6.96" ry="6.39" transform="translate(-319.85 -251.81) rotate(-0.89)"/><ellipse class="cls-11" cx="926.33" cy="774.49" rx="6.96" ry="6.39" transform="translate(-319.82 -250.82) rotate(-0.89)"/><path class="cls-19" d="M877.94,821.62c-12.1-4.17-15,3-14.13,6.94,3.59,16.69,22.05,3.34,22.05,3.34a48.89,48.89,0,0,0,22.69,16.19s32.18-1.81,26.56-28.8c-5.94-28.52-31.49-14-31.49-14l-.46-5.6-3.51.05-.58-37.09,2.37,0-.16-10.78-1,0,.15,9.81-2.4,0,.61,39.15,3.71-.25.56,6.06S927.12,792,933.77,818c7.21,28.19-25.4,29.16-25.4,29.16S893,841.94,886,830.77c0,0-17.27,14.13-21.66-2.22-.94-3.5,2.28-10.6,13.06-6.3Z" transform="translate(-307.93 -265.27)"/><path class="cls-16" d="M750.59,850.54s18.8,24.53,42.8,20.4,34.36-15.2,43.5-32.27c0,0,44.18-28,65.45,5.84,0,0,36.46-29.6,60.07-10.79s47.35,46.65,85.51,9.95c0,0-21,92.53-148.32,26C899.6,869.68,802.8,944.12,750.59,850.54Z" transform="translate(-307.93 -265.27)"/><path class="cls-16" d="M982.58,739.77s47.65-40.59-10.06-55.49c0,0,12.55-31-44.06-24.89s-104.82,11.4-104.82,11.4l-10.55,11.07s-30.31-2.16-29.16,22.26c0,0-49.5,20.32-9.27,44.89,0,0-28.19,14-3.86,30.65,0,0,2.29-2,7.63-.83,7.53,1.7,19,5.92,25.79,14.1,0,0,1.73-3.2,1-14.66,1.37-.18,5.31-2.65,5-25,0,0,21.44,1.3,12.21-49.7,0,0,54.43,36.41,47.82,4.14,0,0,71.08,37.26,68.18-1,0,0,25.41,7.88,30.27,74C968.65,780.6,1010.65,756.15,982.58,739.77Z" transform="translate(-307.93 -265.27)"/><path class="cls-20" d="M450.62,1108.52l45-7.22-33,167s-4.19,21.12,17.31,17.28c0,0-3.08,27.62-30.17,26.54s-29.42-21.61-31.59-32.6S450.62,1108.52,450.62,1108.52Z" transform="translate(-307.93 -265.27)"/><path class="cls-20" d="M425.57,1270.87l-.28-18.07c-17.72,21.34-25.16,26.47-25.16,26.47-60,41-51.08-27.79-51.08-27.79,52.06-5.82,64-41.6,64-41.6s21.28-50.47-36.9-50.07S308,1252.12,308,1252.12s-2.07,46.63,32.5,58.66C379.58,1324.39,428.06,1275,425.57,1270.87Zm-41.1-95.65s30.09,0,9.58,35.45-41.2,26.71-41.2,26.71C366.61,1170.86,384.47,1175.22,384.47,1175.22Z" transform="translate(-307.93 -265.27)"/><path class="cls-20" d="M942.87,1262.85l-.28-18.07c-17.72,21.34-25.16,26.47-25.16,26.47-60,41-51.07-27.79-51.07-27.79,52-5.82,64-41.61,64-41.61s21.28-50.46-36.9-50.06-68.24,92.31-68.24,92.31-2.07,46.63,32.5,58.65C896.89,1316.37,945.36,1267,942.87,1262.85Zm-41.1-95.65s30.09,0,9.58,35.45-41.2,26.71-41.2,26.71C883.91,1162.84,901.77,1167.2,901.77,1167.2Z" transform="translate(-307.93 -265.27)"/><path class="cls-20" d="M606.37,1225.93s-15.52,66.42,30,58.7,52.18-62,52.18-62l.48,30.84s-14.32,46.26-76.85,55.67-45.77-74.05-45.77-74.05,7-71.93,73.51-76.88c42.57-3.17,33,27.56,33,27.56l-17.58-2.23s2.76-16.09-11.76-14.86-28.66,27.52-28.66,27.52S607.49,1219.93,606.37,1225.93Z" transform="translate(-307.93 -265.27)"/><polygon class="cls-20" points="396.81 837.8 436.87 834.17 424.13 906.29 399.99 1043 355.88 1043.56 396.81 837.8"/><path class="cls-20" d="M743.1,1168s40.12-31.83,62.25,13c0,0,4.52,21.15-1.79,38.63-5.56,15.43-15.54,64.3,3.83,60.61s23.75-12,23.75-12l.18,11.82s-19.9,26.08-47.71,27.08-32.49-33.9-32.49-33.9,8.37-42.62,12.13-66.37,1-31.61-20-26.39-18.3,8.18-18.3,8.18l3.9-15.48S733.83,1176.82,743.1,1168Z" transform="translate(-307.93 -265.27)"/><path class="cls-20" d="M1257.24,1271.94c-7.35-4.51-5.13-15.91-5.13-15.91l33-167-45,7.21s-32.55,159.77-32.45,171c.12,12.59,4.16,27.92,25,31.83l0,.05h.24a43.91,43.91,0,0,0,6.32.73c8.18.32,15.75-.62,22.88-4.31a172.77,172.77,0,0,0,38-35.56l-3.48-10.16C1280.9,1271.22,1266.89,1274,1257.24,1271.94Z" transform="translate(-307.93 -265.27)"/><path class="cls-20" d="M1343,1270.61c-7.35-4.51-5.12-15.91-5.12-15.91l33-167-45,7.21s-32.55,159.77-32.44,171c.12,12.59,4.15,27.92,25,31.83v0h.24a43.91,43.91,0,0,0,6.32.73c8.17.33,15.74-.62,22.87-4.3a172.66,172.66,0,0,0,38-35.57l-3.48-10.16C1366.62,1269.89,1352.6,1272.67,1343,1270.61Z" transform="translate(-307.93 -265.27)"/><ellipse class="cls-20" cx="1174.27" cy="1110.46" rx="25.19" ry="24.19" transform="translate(-325 -246.93) rotate(-0.89)"/><path class="cls-20" d="M1220,1244.12s-30.87,39-47.57,27.93c-13.38-8.84,15.67-121.43,15.67-121.43l-42.61.66-18.81,115.22s-2,37.68,35.92,34.12,68.61-61.19,68.61-61.19Z" transform="translate(-307.93 -265.27)"/><path class="cls-20" d="M1134.76,1254.09s-18.21,38.27-70.69,48.67-46.09-61.9-46.09-61.9,8.91-80.58,56.73-88.48,53.27,13.82,50.54,26.65l-18.71,1s6.52-15.89-10.81-17.88-34.71,41.15-34.71,41.15-24.26,82.1,20.68,72.63,52.76-41.43,52.76-41.43Z" transform="translate(-307.93 -265.27)"/><path class="cls-20" d="M1508.7,1167.82c-1.61,8.8-16.53,16.55-16.53,16.55l-1.14,1.11c.29-10.51-2.93-19.37-18.63-7-19.78,15.65-10,23.82-2.1,27.38l-.11.11c1.62,7.49-4.73,34.67-4.73,34.67s-9.36,26.46-24.37,29-19-11.74-19-11.74-11.31-50.21,12.27-81.41,35.2-9.57,35.2-9.57,5.44,11.2,13.1-4-12.69-18.23-12.69-18.23c-67.47-10.61-85,56.09-85,56.09-25.6,107.19,38.56,98.43,38.56,98.43,70.62-5.11,69.69-97.6,69.69-97.6C1516.74,1184.57,1510.32,1159,1508.7,1167.82Z" transform="translate(-307.93 -265.27)"/><path class="cls-20" d="M1016.46,1077.93c-38.61-.15-48.33,35.72-48.33,35.72l-36.3,189c-78.44,11.64-59.47,82.75-16.23,77.15,44-5.69,48.95-44.13,48.95-44.13l33.13-171,24.38-.38-.19-12.54-21.75.33,5.75-29.65-.08,0,1.32-.5s-.23-15,18.54-17.09,13.79,16.34,13.79,16.34l14.8.27C1055.19,1118.19,1055.07,1078.08,1016.46,1077.93ZM905.84,1352.11c-30.68-13.44,21.25-39.4,21.25-39.4S920.23,1358.41,905.84,1352.11Z" transform="translate(-307.93 -265.27)"/><path class="cls-11" d="M753.58,545.91s51.35,37.56,82.08-17.82C835.66,528.09,814.07,590.47,753.58,545.91Z" transform="translate(-307.93 -265.27)"/><path class="cls-11" d="M925.64,499.39s-17.59,54.05-77.42,27.15C848.22,526.54,912.71,563.14,925.64,499.39Z" transform="translate(-307.93 -265.27)"/><path class="cls-11" d="M774.19,462.08s-35.43-48,9.65-85.86c22.58-19,50.71-28.24,74.43-26,10,.95,89.86,4.1,83.67,90.05,0,0,25.22-88.5-88.39-98.53C805.43,337.53,722.21,392.19,774.19,462.08Z" transform="translate(-307.93 -265.27)"/><text class="cls-21" transform="translate(1215.31 863.79)">R</text><circle class="cls-22" cx="1228.57" cy="847.89" r="34.49"/></svg>