<svg xmlns="http://www.w3.org/2000/svg" width="1895.243" height="1900.626" viewBox="0 0 1895.243 1900.626">
  <g id="Grupo_67" data-name="Grupo 67" transform="translate(1369.086 -502.294) rotate(43)">
    <path id="Trazado_203" data-name="Trazado 203" d="M1011.094,2048.307S438.8,2069.825,139.3,1662.8,301.607,867.733,301.607,867.733s581.5-625.9,841.462,250.115c215.2,725.188,181.632,658.828,181.632,658.828Z" transform="translate(0 0)" fill="#f4dc64"/>
    <ellipse id="Elipse_68" data-name="Elipse 68" cx="392.412" cy="87.635" rx="392.412" ry="87.635" transform="translate(796.506 2171.388) rotate(-43.319)" fill="#ffc252"/>
    <path id="Trazado_204" data-name="Trazado 204" d="M126.977,791.843s-20.539,19.373-5.28,62.526,22.754,58.189,38.082,40.378c0,0,11.249,11.481,19.292-2.122,0,0,25.726,5.257,17.73-15.69,0,0-32.615-38.535-26.3-65.905,0,0,13.72,1.784,24.9,20.014,0,0,14.4,2.495,12.1-13.416s-21.658-36.462-47.815-37.22c0,0-5.828-12.577-19.839-28.139l-46.125-.664S96.379,766.491,126.977,791.843Z" transform="translate(590.885 1070.926)" fill="none" stroke="#17100d" stroke-miterlimit="10" stroke-width="0.752"/>
    <path id="Trazado_205" data-name="Trazado 205" d="M210.814,872.5l26.216-24.712-31.065-32.941s49.715-86.364-9.08-101.179c0,0-21.833-42.313-40.506-28.057s4.278,30.1,4.278,30.1-36.695-28.978-49.354-8.346,12.309,26.542,12.309,26.542,18.382,7.425,28.442,16.68c0,0-20.76-8.533-40.891,8.439s-11.575,42.371,2.215,42.08c0,0-16.284,26.741,8.218,48.468s39.994,10.468,58.061-6.562Z" transform="translate(649.747 336.406)" fill="#f9ccb1" stroke="#17100d" stroke-miterlimit="10" stroke-width="0.752"/>
    <path id="Trazado_206" data-name="Trazado 206" d="M126.977,791.843s-20.539,19.373-5.28,62.526,22.754,58.189,38.082,40.378c0,0,11.249,11.481,19.292-2.122,0,0,25.726,5.257,17.73-15.69,0,0-32.615-38.535-26.3-65.905,0,0,13.72,1.784,24.9,20.014,0,0,14.4,2.495,12.1-13.416s-21.658-36.462-47.815-37.22c0,0-5.828-12.577-19.839-28.139l-46.125-.664S96.379,766.491,126.977,791.843Z" transform="translate(590.885 1070.926)" fill="#f9ccb1"/>
    <path id="Trazado_207" data-name="Trazado 207" d="M122.124,817.086s-24.036-22.962-23.756-58.107c0,0-7.985,29.351,20.784,59.309" transform="translate(629.565 1149.508)" fill="#17100d"/>
    <path id="Trazado_208" data-name="Trazado 208" d="M131.19,825.493S100.055,799.523,99.414,758c0,0-8.4,37.347,27.649,67.094" transform="translate(642.496 1139.097)" fill="#17100d"/>
    <path id="Trazado_209" data-name="Trazado 209" d="M98.182,760.282s12.927-5.689,23.3-2.67l-5.362-3.707S103.427,752.822,98.182,760.282Z" transform="translate(638.424 1094.854)" fill="#17100d"/>
    <path id="Trazado_210" data-name="Trazado 210" d="M210.814,872.5l26.216-24.712-31.065-32.941s49.715-86.364-9.08-101.179c0,0-21.833-42.313-40.506-28.057s4.278,30.1,4.278,30.1-36.695-28.978-49.354-8.346,12.309,26.542,12.309,26.542,18.382,7.425,28.442,16.68c0,0-20.76-8.533-40.891,8.439s-11.575,42.371,2.215,42.08c0,0-16.284,26.741,8.218,48.468s39.994,10.468,58.061-6.562Z" transform="translate(649.747 336.406)" fill="#f9ccb1"/>
    <path id="Trazado_211" data-name="Trazado 211" d="M139.438,759.152s5.84-33.677-32.953-67.655l-2.867-7.041S152.19,723.715,139.438,759.152Z" transform="translate(696.342 355.351)" fill="#17100d"/>
    <path id="Trazado_212" data-name="Trazado 212" d="M107.48,764.5s15.34-41.217,1.644-79.16l2.156.595S126.888,720.773,107.48,764.5Z" transform="translate(737.508 364.739)" fill="#17100d"/>
    <path id="Trazado_213" data-name="Trazado 213" d="M100.5,698.559s28.687-22.964,48.5,8.882c0,0-1.492-7.623-13.883-18.172C135.119,689.27,115.431,683.405,100.5,698.559Z" transform="translate(663.115 394.751)" fill="#17100d"/>
    <path id="Trazado_214" data-name="Trazado 214" d="M100.291,717.48s4.406-27,27.1-21.856c.641.152.839-1.422-.1-1.9,0,0-12.88-6.807-24.467,7.134C102.82,700.857,98.9,714.006,100.291,717.48Z" transform="translate(657.728 436.398)" fill="#17100d"/>
    <path id="Trazado_215" data-name="Trazado 215" d="M102.264,701.85s11.225,9.232,9.943,17.73,14.8,14.9,20.317,2.914,3.439-24.572-4.453-28.418S111.822,688.83,102.264,701.85Z" transform="translate(681.924 429.355)" fill="#17100d"/>
    <path id="Trazado_216" data-name="Trazado 216" d="M102.74,699.417s8.381,6.714,7.612,14.978c-.909,9.687,14.5,11.1,16.331-.244,1.725-10.608,1.865-16.016-5.047-19.7C116.658,691.794,110.958,688.075,102.74,699.417Z" transform="translate(686.996 432.267)" fill="#f4dc64"/>
    <path id="Trazado_217" data-name="Trazado 217" d="M117.3,787.1l146.243,99.418c-11,8.976-29.176,26.309-18.534,35.541,14.78,12.834,47.174-35.121,47.174-35.121L165.93,753.051Z" transform="translate(842.145 1086.336)" fill="#444342" stroke="#17100d" stroke-miterlimit="10" stroke-width="0.501"/>
    <path id="Trazado_218" data-name="Trazado 218" d="M282.6,878.513c-9.232-3.835-19.571,5.408-25.738,12.414l-98.731-144.4s-3.987,14.221-33.711,41.591L256.562,921.153,264,914.136l.012.011,8.311-7.857S296.894,884.446,282.6,878.513Z" transform="translate(918.073 1016.802)" fill="#444342" stroke="#17100d" stroke-miterlimit="10" stroke-width="0.501"/>
    <path id="Trazado_219" data-name="Trazado 219" d="M362.538,1438.526s159.24-51.125,243.692-229.809c0,0-245.405-251.734-347.959-278.16,0,0,107.3-18.208,136.043-58.7s52.828-110.037-12.717-176.7l-17.718,16.693-44.633,42.091S431.929,857.809,174.04,913.621l-84.58,89.125S69.842,1248.77,159.376,1366.43c0,0,66.827-.105,75.966-30.143,0,0-56.93-125.658-56.6-136.673C178.738,1199.614,284.684,1368.728,362.538,1438.526Z" transform="translate(526.069 469.354)" fill="#fff" stroke="#17100d" stroke-linecap="round" stroke-linejoin="round" stroke-width="0.501"/>
    <ellipse id="Elipse_69" data-name="Elipse 69" cx="8.033" cy="7.303" rx="8.033" ry="7.303" transform="translate(730.591 1506.805) rotate(-43.319)" fill="#c5c7cd" stroke="#17100d" stroke-miterlimit="10" stroke-width="0.251"/>
    <ellipse id="Elipse_70" data-name="Elipse 70" cx="8.033" cy="7.303" rx="8.033" ry="7.303" transform="translate(766.89 1472.575) rotate(-43.319)" fill="#c5c7cd" stroke="#17100d" stroke-miterlimit="10" stroke-width="0.251"/>
    <ellipse id="Elipse_71" data-name="Elipse 71" cx="8.033" cy="7.303" rx="8.033" ry="7.303" transform="translate(763.659 1541.871) rotate(-43.319)" fill="#c5c7cd" stroke="#17100d" stroke-miterlimit="10" stroke-width="0.251"/>
    <ellipse id="Elipse_72" data-name="Elipse 72" cx="8.033" cy="7.303" rx="8.033" ry="7.303" transform="translate(798.908 1502.61) rotate(-43.319)" fill="#c5c7cd" stroke="#17100d" stroke-miterlimit="10" stroke-width="0.251"/>
    <ellipse id="Elipse_73" data-name="Elipse 73" cx="8.033" cy="7.303" rx="8.033" ry="7.303" transform="translate(803.726 1579.038) rotate(-43.319)" fill="#c5c7cd" stroke="#17100d" stroke-miterlimit="10" stroke-width="0.251"/>
    <ellipse id="Elipse_74" data-name="Elipse 74" cx="8.033" cy="7.303" rx="8.033" ry="7.303" transform="translate(838.975 1539.776) rotate(-43.319)" fill="#c5c7cd" stroke="#17100d" stroke-miterlimit="10" stroke-width="0.251"/>
    <ellipse id="Elipse_75" data-name="Elipse 75" cx="8.033" cy="7.303" rx="8.033" ry="7.303" transform="translate(849.653 1616.033) rotate(-43.319)" fill="#c5c7cd" stroke="#17100d" stroke-miterlimit="10" stroke-width="0.251"/>
    <ellipse id="Elipse_76" data-name="Elipse 76" cx="8.033" cy="7.303" rx="8.033" ry="7.303" transform="translate(884.902 1576.771) rotate(-43.319)" fill="#c5c7cd" stroke="#17100d" stroke-miterlimit="10" stroke-width="0.251"/>
    <ellipse id="Elipse_77" data-name="Elipse 77" cx="8.033" cy="7.303" rx="8.033" ry="7.303" transform="translate(887.989 1653.493) rotate(-43.319)" fill="#c5c7cd" stroke="#17100d" stroke-miterlimit="10" stroke-width="0.251"/>
    <ellipse id="Elipse_78" data-name="Elipse 78" cx="8.033" cy="7.303" rx="8.033" ry="7.303" transform="translate(923.238 1614.231) rotate(-43.319)" fill="#c5c7cd" stroke="#17100d" stroke-miterlimit="10" stroke-width="0.251"/>
    <ellipse id="Elipse_79" data-name="Elipse 79" cx="8.033" cy="7.303" rx="8.033" ry="7.303" transform="translate(934.16 1705.649) rotate(-43.319)" fill="#c5c7cd" stroke="#17100d" stroke-miterlimit="10" stroke-width="0.251"/>
    <ellipse id="Elipse_80" data-name="Elipse 80" cx="8.033" cy="7.303" rx="8.033" ry="7.303" transform="translate(969.409 1666.387) rotate(-43.319)" fill="#c5c7cd" stroke="#17100d" stroke-miterlimit="10" stroke-width="0.251"/>
    <path id="Trazado_220" data-name="Trazado 220" d="M96.335,776.97s5.362-15.095,17.461-22.24c0,0-6.19-1.737-13.265,8.707S96.335,776.97,96.335,776.97Z" transform="translate(612.528 1103.074)" fill="#17100d"/>
    <path id="Trazado_221" data-name="Trazado 221" d="M87.9,721.434l.49,9.395s22.532,159.089,263.962,430.3c3.182,3.578,7.367.07,7.367.07S128.508,906.784,87.9,721.434Z" transform="translate(528.821 749.409)" fill="#17100d"/>
    <path id="Trazado_222" data-name="Trazado 222" d="M88.582,824.139s69.788-13.277,109.466-109.583l3.229,1.06S170.259,805.01,89.375,826.4Z" transform="translate(536.121 676.113)" fill="#17100d"/>
    <path id="Trazado_223" data-name="Trazado 223" d="M504.192,1017.624,315.472,817.493S174.405,663.65,93.672,749.419l.163-3.566s61.43-90.805,218.362,60.008l197.777,206.309Z" transform="translate(590.363 720.806)" fill="#17100d"/>
    <path id="Trazado_224" data-name="Trazado 224" d="M95.5,715.358s-12.333-7.087,83.985,11.493l2.541,6.283S99.789,713.482,95.5,715.358Z" transform="translate(604.376 670.519)" fill="#17100d"/>
    <path id="Trazado_225" data-name="Trazado 225" d="M76.61,731.286s9.593,26.67,33.279,11.866L94.678,714.244Z" transform="translate(408.541 672.788)" fill="#52270b" stroke="#17100d" stroke-linecap="round" stroke-linejoin="round" stroke-width="0.376"/>
    <path id="Trazado_226" data-name="Trazado 226" d="M213.426,700.541c-28.162-23.278-86.573-19.42-114.094,11.89C36.853,783.5,90.706,834.394,96.1,837.273c-7.472,3.392-14.839,9.826-21.2,15.829-28.757,27.125-31.8,70.6-6.772,97.134s68.6,26.052,97.367-1.061a75.507,75.507,0,0,0,21.646-36.822,71.552,71.552,0,0,0,17.1-11.948c.338-.325.664-.663,1-.991l98.5,92.052s18.3-46.591,27.008-58.107c10.514-13.883,49.843-43.479,49.843-43.479l-8.521-9.034L250.633,826.129a71.693,71.693,0,0,0,11.808-14.466,77.468,77.468,0,0,0,32.125-18.336c28.757-27.113,32.347-70.009,8.02-95.8C279.39,672.915,242.043,676.961,213.426,700.541Z" transform="translate(137.512 317.083)" fill="#fff" stroke="#17100d" stroke-miterlimit="10" stroke-width="0.627"/>
    <path id="Trazado_227" data-name="Trazado 227" d="M138.95,884.392s-16.7,29.805-33.233,12.275,26.414-24.922,26.414-24.922-62.2-63.8-59.821-86.118c0,0,43.386-90.094,73.972-86.818s91.55,30.109,100.491,55.8c0,0,2.343-35.331,30.272-16.506s-7.752,26.344-7.752,26.344,118.9,51.545,74.427,142.664c0,0,12.846,33.058-2.18,45.216s-44.411,4.744-44.411,4.744S223.378,1023.607,138.95,884.392Z" transform="translate(362.007 507.372)" fill="#f6c8ab" stroke="#17100d" stroke-linecap="round" stroke-linejoin="round" stroke-width="0.376"/>
    <path id="Trazado_228" data-name="Trazado 228" d="M83.322,731.15s-7.169-6.328.012-16.9C83.333,714.249,66.28,722.269,83.322,731.15Z" transform="translate(399.382 672.841)" fill="#17100d"/>
    <path id="Trazado_229" data-name="Trazado 229" d="M75.948,718.832s11.26-4.034,16.086-2.1C92.034,716.734,85.483,710.847,75.948,718.832Z" transform="translate(401.486 677.047)" fill="#17100d"/>
    <path id="Trazado_230" data-name="Trazado 230" d="M87.97,709.061A35.185,35.185,0,0,1,96.654,707a19.568,19.568,0,0,1-3.1,5.863c6.563-3.684,6.2-5.851,6.2-5.851a7.446,7.446,0,0,1,4.768,2.039C109.033,713.829,99.02,692.578,87.97,709.061Z" transform="translate(529.599 549.621)" fill="#17100d"/>
    <ellipse id="Elipse_81" data-name="Elipse 81" cx="6.755" cy="6.208" rx="6.755" ry="6.208" transform="translate(518.614 1330.445) rotate(-43.319)" fill="#17100d"/>
    <ellipse id="Elipse_82" data-name="Elipse 82" cx="6.755" cy="6.208" rx="6.755" ry="6.208" transform="translate(563.776 1287.858) rotate(-43.319)" fill="#17100d"/>
    <path id="Trazado_231" data-name="Trazado 231" d="M110.99,771.063c-11.412,4.943-8.8,11.948-5.583,14.245,13.51,9.6,17.986-12.065,17.986-12.065a47.566,47.566,0,0,0,26.88-3.252s21.879-22.393.163-38.059c-22.94-16.552-31.764,10.585-31.764,10.585l-4-3.707-2.471,2.331-24.723-26.2,1.679-1.585-7.18-7.612-.711.664,6.528,6.936-1.69,1.6L112.191,742.6l2.495-2.611,4.371,3.975s7.752-26.379,29.573-12.076c23.639,15.479.909,37.546.909,37.546s-14.466,6.353-26.763,2.892c0,0-3.112,21.447-16.972,12.6-2.973-1.889-5.315-9.092,5.234-13.067Z" transform="translate(458.158 582.165)" fill="#17100d" stroke="#17100d" stroke-miterlimit="10" stroke-width="0.251"/>
    <path id="Trazado_232" data-name="Trazado 232" d="M77.61,902.9s29.549,5.256,44.05-13.439,14.664-33.408,10.036-51.616c0,0,13.347-49,50.741-38.711,0,0,6.737-45.111,35.984-47.092s64.507,2.413,67.818-48.9c0,0,45.577,80.08-89.277,115.83C196.961,818.975,176.353,935.763,77.61,902.9Z" transform="translate(419.198 554.511)" fill="#52270b" stroke="#17100d" stroke-linecap="round" stroke-linejoin="round" stroke-width="0.376"/>
    <path id="Trazado_233" data-name="Trazado 233" d="M242.795,740.627s7.553-60.322-43.584-33.186c0,0-11.33-30.47-47.885,11.027S83.66,795.319,83.66,795.319l-.315,14.852s-23.138,18.312-6.306,35.063c0,0-22.171,47,22.765,38.256,0,0-11.05,28.489,17.31,24.5,0,0,.315-2.96,4.931-5.594,6.516-3.719,17.473-8.183,27.719-6.8,0,0-.851-3.427-8.894-11.155.863-1.026,2.075-5.385-12.845-21.2,0,0,16.214-13.114-23.814-43.63,0,0,62.875-9.559,36.986-28.349,0,0,75.36-19.874,48.188-45.437,0,0,23.371-11,70.172,33.2C259.557,779.023,273.65,733.97,242.795,740.627Z" transform="translate(347.731 485.37)" fill="#52270b" stroke="#17100d" stroke-linecap="round" stroke-linejoin="round" stroke-width="0.376"/>
    <g id="Grupo_66" data-name="Grupo 66" transform="translate(415.255 1186.141)">
      <path id="Trazado_234" data-name="Trazado 234" d="M73.665,784.7l27.544-34.667,85.745,141.312s10.841,17.882,23.733,1.049c0,0,15.888,21.821-4.243,38.793s-35.238,3.789-44-2.669S73.665,784.7,73.665,784.7Z" transform="translate(-38.097 -131.965)" fill="#98380c"/>
      <path id="Trazado_235" data-name="Trazado 235" d="M194.608,820.838l-12.041-12.763c1.282,26.9-.7,35.46-.7,35.46-16.133,68.75-54.809,13.544-54.809,13.544C160.559,818.8,145.7,785.3,145.7,785.3s-17.823-50.111-59.25-11.715S98.01,884.471,98.01,884.471s29.071,34.783,61.733,20.749C196.718,889.333,199.1,822.168,194.608,820.838Zm-92.133-41.625s21.588-19.688,30.1,19.128-12.03,46.148-12.03,46.148C86.82,787.793,102.474,779.213,102.474,779.213Z" transform="translate(-70.614 -35.314)" fill="#98380c"/>
      <path id="Trazado_236" data-name="Trazado 236" d="M225.968,791.271l-12.041-12.764c1.282,26.9-.7,35.46-.7,35.46-16.133,68.75-54.809,13.544-54.809,13.544,33.5-38.28,18.639-71.78,18.639-71.78s-17.823-50.123-59.25-11.715S129.37,854.9,129.37,854.9s29.071,34.783,61.733,20.748C228.078,859.765,230.456,792.6,225.968,791.271Zm-92.133-41.626s21.588-19.687,30.1,19.128-12.03,46.149-12.03,46.149C118.168,758.225,133.834,749.646,133.834,749.646Z" transform="translate(263.575 -350.453)" fill="#98380c"/>
      <path id="Trazado_237" data-name="Trazado 237" d="M127.034,828.653s32.405,57.77,59.961,22.415-3.206-78.612-3.206-78.612l20.55,21.786s20.049,42.547-18.616,90.256-81.328-23.08-81.328-23.08-42.1-56.16,2.32-103.277c28.442-30.167,41.73-1.876,41.73-1.876l-14.069,9.919s-8.568-13.346-18.173-2.949-2.506,38.5-2.506,38.5S123.91,823.617,127.034,828.653Z" transform="translate(97.113 -193.8)" fill="#98380c"/>
      <path id="Trazado_238" data-name="Trazado 238" d="M88.986,764.759l26.333-28.846,38.131,60.043,72.275,113.81-31.256,29.3Z" transform="translate(125.171 -282.435)" fill="#98380c"/>
      <path id="Trazado_239" data-name="Trazado 239" d="M101.252,772.509s7.891-49.1,53.1-31.508c0,0,17.1,12.205,24.036,28.862,6.12,14.71,30.983,56.278,42.453,40.937s9.151-24.175,9.151-24.175l7.88,8.346s2.821,31.741-16.459,50.682-45.5-3.02-45.5-3.02-21.938-36.03-34.795-55.52-19.979-23.324-31.6-5.84-7.763,17.858-7.763,17.858l-7.344-13.65S100.366,784.889,101.252,772.509Z" transform="translate(182.972 -268.758)" fill="#98380c"/>
      <path id="Trazado_240" data-name="Trazado 240" d="M248.909,854.269c-8.229,1.585-14.1-8.043-14.1-8.043L149.059,704.9l-27.533,34.667s81.351,135.846,88.765,143.819c8.346,8.952,21.273,17.286,38.816,6.41l.023.035.163-.152a44.075,44.075,0,0,0,5.012-3.625c6.073-5.118,10.876-10.759,13.568-18.068a167.952,167.952,0,0,0,3.94-50.392l-9.162-5C265.4,838.24,257.173,849.419,248.909,854.269Z" transform="translate(471.935 -612.916)" fill="#98380c"/>
      <path id="Trazado_241" data-name="Trazado 241" d="M254.1,849.368c-8.229,1.585-14.1-8.055-14.1-8.055L154.255,700l-27.533,34.667S208.073,870.513,215.5,878.486c8.334,8.952,21.273,17.287,38.8,6.411l.023.035.175-.152a45.058,45.058,0,0,0,5-3.626c6.073-5.117,10.875-10.758,13.58-18.068A168.148,168.148,0,0,0,277.01,812.7l-9.15-5C270.6,833.34,262.369,844.519,254.1,849.368Z" transform="translate(527.306 -665.134)" fill="#98380c"/>
      <ellipse id="Elipse_83" data-name="Elipse 83" cx="24.465" cy="23.491" rx="24.465" ry="23.491" transform="translate(521.644 179.654) rotate(-43.319)" fill="#98380c"/>
      <path id="Trazado_242" data-name="Trazado 242" d="M233.043,760.256s3.4,48.165-15.795,51.2c-15.4,2.436-68.342-97.309-68.342-97.309L118.8,742.538l62.013,94.908s23.255,28.337,48.107.932,9.092-88.823,9.092-88.823Z" transform="translate(442.853 -514.429)" fill="#98380c"/>
      <path id="Trazado_243" data-name="Trazado 243" d="M232.971,777.047s12.018,39.364-18.79,81.211-73.588-14.175-73.588-14.175-46.416-63.6-17.322-100.6,47.256-25,53.69-14.011l-12.729,13.009s-5.735-15.667-19.455-5.736,2.075,52.233,2.075,52.233,36.415,74.754,62.421,38.514,10.666-64.263,10.666-64.263Z" transform="translate(388.384 -468.239)" fill="#98380c"/>
      <path id="Trazado_244" data-name="Trazado 244" d="M211.374,698.947c4.6,7.366-1.014,22.708-1.014,22.708l-.082,1.537c-6.691-7.727-14.8-11.97-17.916,7.227-3.928,24.177,8.439,23.639,16.436,21.005l-.011.152c6.073,4.3,19.338,27.94,19.338,27.94s10.619,25.109,1.5,36.73-21.308,4.022-21.308,4.022-41.008-28.582-44.54-66.407,18.954-29.923,18.954-29.923,11.237,4.464,6.8-11.423-21.04-4.745-21.04-4.745c-55.322,36.6-24.211,95.934-24.211,95.934,51.883,93.613,92.133,45.285,92.133,45.285,47.267-49.936-14-115.62-14-115.62C228.113,705.685,206.758,691.581,211.374,698.947Z" transform="translate(621.501 -697.01)" fill="#98380c"/>
      <path id="Trazado_245" data-name="Trazado 245" d="M121.483,728.713c-27.777,25.189-11.237,57.28-11.237,57.28l97.833,159.263c-48.608,59.751,11.587,98.288,38.921,65.941,27.824-32.929,6.166-63.7,6.166-63.7L164.88,803.222l17.228-16.238-8.358-8.87L158.387,792.6l-15.317-25.027-.07.047.618-1.236s-10.013-10.619,2.1-24.4,20.585,2.681,20.585,2.681l10.782-9.5C175.628,732.2,149.26,703.523,121.483,728.713ZM221.834,997.734c-30.8,10.468-10.573-42.173-10.573-42.173S236.288,992.827,221.834,997.734Z" transform="translate(299.648 -468.665)" fill="#98380c"/>
    </g>
    <path id="Trazado_246" data-name="Trazado 246" d="M60.67,762.218s61.418-6.725,47.162-66.547C107.832,695.671,133.22,754.536,60.67,762.218Z" transform="translate(238.676 474.864)" fill="#17100d"/>
    <path id="Trazado_247" data-name="Trazado 247" d="M103.1,688.848s22.812,50.263-37.7,70.184C65.4,759.032,135.608,743.016,103.1,688.848Z" transform="translate(289.092 402.155)" fill="#17100d"/>
    <path id="Trazado_248" data-name="Trazado 248" d="M108.509,846.059s-56.837-11.179-49.342-67.876C62.921,749.8,77.013,724.725,95.5,710.8c7.752-5.828,67.1-55.94,118.978,9.733,0,0-39.912-79.975-127.919-12.705C49.294,736.312,25.457,830.019,108.509,846.059Z" transform="translate(150.68 317.437)" fill="#17100d"/>
  </g>
</svg>
